<svg width="118" height="32" viewBox="0 0 118 32" fill="none" xmlns="http://www.w3.org/2000/svg">
<path d="M40.1683 21.002H44.3083V23H37.6483V10.436H40.1683V21.002ZM47.188 11.84C46.744 11.84 46.372 11.702 46.072 11.426C45.784 11.138 45.64 10.784 45.64 10.364C45.64 9.944 45.784 9.596 46.072 9.32C46.372 9.032 46.744 8.888 47.188 8.888C47.632 8.888 47.998 9.032 48.286 9.32C48.586 9.596 48.736 9.944 48.736 10.364C48.736 10.784 48.586 11.138 48.286 11.426C47.998 11.702 47.632 11.84 47.188 11.84ZM48.43 13.028V23H45.91V13.028H48.43ZM56.4457 12.884C57.6337 12.884 58.5937 13.262 59.3257 14.018C60.0577 14.762 60.4237 15.806 60.4237 17.15V23H57.9037V17.492C57.9037 16.7 57.7057 16.094 57.3097 15.674C56.9137 15.242 56.3737 15.026 55.6897 15.026C54.9937 15.026 54.4417 15.242 54.0337 15.674C53.6377 16.094 53.4397 16.7 53.4397 17.492V23H50.9197V13.028H53.4397V14.27C53.7757 13.838 54.2017 13.502 54.7177 13.262C55.2457 13.01 55.8217 12.884 56.4457 12.884ZM66.6361 23.162C65.8201 23.162 65.0881 23.018 64.4401 22.73C63.7921 22.43 63.2761 22.028 62.8921 21.524C62.5201 21.02 62.3161 20.462 62.2801 19.85H64.8181C64.8661 20.234 65.0521 20.552 65.3761 20.804C65.7121 21.056 66.1261 21.182 66.6181 21.182C67.0981 21.182 67.4701 21.086 67.7341 20.894C68.0101 20.702 68.1481 20.456 68.1481 20.156C68.1481 19.832 67.9801 19.592 67.6441 19.436C67.3201 19.268 66.7981 19.088 66.0781 18.896C65.3341 18.716 64.7221 18.53 64.2421 18.338C63.7741 18.146 63.3661 17.852 63.0181 17.456C62.6821 17.06 62.5141 16.526 62.5141 15.854C62.5141 15.302 62.6701 14.798 62.9821 14.342C63.3061 13.886 63.7621 13.526 64.3501 13.262C64.9501 12.998 65.6521 12.866 66.4561 12.866C67.6441 12.866 68.5921 13.166 69.3001 13.766C70.0081 14.354 70.3981 15.152 70.4701 16.16H68.0581C68.0221 15.764 67.8541 15.452 67.5541 15.224C67.2661 14.984 66.8761 14.864 66.3841 14.864C65.9281 14.864 65.5741 14.948 65.3221 15.116C65.0821 15.284 64.9621 15.518 64.9621 15.818C64.9621 16.154 65.1301 16.412 65.4661 16.592C65.8021 16.76 66.3241 16.934 67.0321 17.114C67.7521 17.294 68.3461 17.48 68.8141 17.672C69.2821 17.864 69.6841 18.164 70.0201 18.572C70.3681 18.968 70.5481 19.496 70.5601 20.156C70.5601 20.732 70.3981 21.248 70.0741 21.704C69.7621 22.16 69.3061 22.52 68.7061 22.784C68.1181 23.036 67.4281 23.162 66.6361 23.162Z" fill="white"/>
<path d="M79.7567 16.556C80.4647 16.688 81.0467 17.042 81.5027 17.618C81.9587 18.194 82.1867 18.854 82.1867 19.598C82.1867 20.27 82.0187 20.864 81.6827 21.38C81.3587 21.884 80.8847 22.28 80.2607 22.568C79.6367 22.856 78.8987 23 78.0467 23H72.6287V10.436H77.8127C78.6647 10.436 79.3967 10.574 80.0087 10.85C80.6327 11.126 81.1007 11.51 81.4127 12.002C81.7367 12.494 81.8987 13.052 81.8987 13.676C81.8987 14.408 81.7007 15.02 81.3047 15.512C80.9207 16.004 80.4047 16.352 79.7567 16.556ZM75.1487 15.62H77.4527C78.0527 15.62 78.5147 15.488 78.8387 15.224C79.1627 14.948 79.3247 14.558 79.3247 14.054C79.3247 13.55 79.1627 13.16 78.8387 12.884C78.5147 12.608 78.0527 12.47 77.4527 12.47H75.1487V15.62ZM77.6867 20.948C78.2987 20.948 78.7727 20.804 79.1087 20.516C79.4567 20.228 79.6307 19.82 79.6307 19.292C79.6307 18.752 79.4507 18.332 79.0907 18.032C78.7307 17.72 78.2447 17.564 77.6327 17.564H75.1487V20.948H77.6867ZM83.5471 17.978C83.5471 16.97 83.7451 16.076 84.1411 15.296C84.5491 14.516 85.0951 13.916 85.7791 13.496C86.4751 13.076 87.2491 12.866 88.1011 12.866C88.8451 12.866 89.4931 13.016 90.0451 13.316C90.6091 13.616 91.0591 13.994 91.3951 14.45V13.028H93.9331V23H91.3951V21.542C91.0711 22.01 90.6211 22.4 90.0451 22.712C89.4811 23.012 88.8271 23.162 88.0831 23.162C87.2431 23.162 86.4751 22.946 85.7791 22.514C85.0951 22.082 84.5491 21.476 84.1411 20.696C83.7451 19.904 83.5471 18.998 83.5471 17.978ZM91.3951 18.014C91.3951 17.402 91.2751 16.88 91.0351 16.448C90.7951 16.004 90.4711 15.668 90.0631 15.44C89.6551 15.2 89.2171 15.08 88.7491 15.08C88.2811 15.08 87.8491 15.194 87.4531 15.422C87.0571 15.65 86.7331 15.986 86.4811 16.43C86.2411 16.862 86.1211 17.378 86.1211 17.978C86.1211 18.578 86.2411 19.106 86.4811 19.562C86.7331 20.006 87.0571 20.348 87.4531 20.588C87.8611 20.828 88.2931 20.948 88.7491 20.948C89.2171 20.948 89.6551 20.834 90.0631 20.606C90.4711 20.366 90.7951 20.03 91.0351 19.598C91.2751 19.154 91.3951 18.626 91.3951 18.014ZM101.92 12.884C103.108 12.884 104.068 13.262 104.8 14.018C105.532 14.762 105.898 15.806 105.898 17.15V23H103.378V17.492C103.378 16.7 103.18 16.094 102.784 15.674C102.388 15.242 101.848 15.026 101.164 15.026C100.468 15.026 99.9163 15.242 99.5083 15.674C99.1123 16.094 98.9143 16.7 98.9143 17.492V23H96.3943V13.028H98.9143V14.27C99.2503 13.838 99.6763 13.502 100.192 13.262C100.72 13.01 101.296 12.884 101.92 12.884ZM114.199 23L110.815 18.752V23H108.295V9.68H110.815V17.258L114.163 13.028H117.439L113.047 18.032L117.475 23H114.199Z" fill="#5CE1E6"/>
<path d="M16.4062 0C13.2417 -3.77363e-08 10.1483 0.938383 7.51713 2.69649C4.88594 4.45459 2.83518 6.95345 1.62418 9.87706C0.413176 12.8007 0.096322 16.0177 0.713685 19.1214C1.33105 22.2251 2.8549 25.0761 5.09254 27.3137C7.33018 29.5513 10.1811 31.0752 13.2848 31.6926C16.3885 32.3099 19.6056 31.9931 22.5292 30.7821C25.4528 29.5711 27.9517 27.5203 29.7098 24.8891C31.4679 22.2579 32.4062 19.1645 32.4062 16L24.4062 16C24.4062 17.5823 23.9371 19.129 23.058 20.4446C22.179 21.7602 20.9295 22.7855 19.4677 23.391C18.0059 23.9965 16.3974 24.155 14.8455 23.8463C13.2937 23.5376 11.8682 22.7757 10.7494 21.6569C9.63057 20.538 8.86865 19.1126 8.55997 17.5607C8.25129 16.0089 8.40971 14.4003 9.01521 12.9385C9.62072 11.4767 10.6461 10.2273 11.9617 9.34824C13.2773 8.46919 14.824 8 16.4062 8V0Z" fill="white"/>
<path d="M16.4062 0C14.3051 -2.5056e-08 12.2245 0.413852 10.2833 1.21793C8.3421 2.022 6.57828 3.20055 5.09254 4.68629C3.6068 6.17203 2.42825 7.93586 1.62418 9.87707C0.820102 11.8183 0.40625 13.8989 0.40625 16H8.40625C8.40625 14.9494 8.61318 13.9091 9.01521 12.9385C9.41725 11.9679 10.0065 11.086 10.7494 10.3431C11.4923 9.60028 12.3742 9.011 13.3448 8.60896C14.3154 8.20693 15.3557 8 16.4062 8V0Z" fill="#5CE1E6"/>
<circle cx="16.4062" cy="16" r="5" fill="#5CE1E6"/>
<path d="M21.4062 16C21.4062 15.3434 21.2769 14.6932 21.0256 14.0866C20.7744 13.48 20.4061 12.9288 19.9418 12.4645C19.4775 12.0002 18.9263 11.6319 18.3197 11.3806C17.713 11.1293 17.0629 11 16.4062 11C15.7496 11 15.0995 11.1293 14.4928 11.3806C13.8862 11.6319 13.335 12.0002 12.8707 12.4645C12.4064 12.9288 12.0381 13.48 11.7869 14.0866C11.5356 14.6932 11.4062 15.3434 11.4063 16L16.4062 16H21.4062Z" fill="white"/>
</svg>
